<svg width="44" height="46" viewBox="0 0 44 46" fill="none" xmlns="http://www.w3.org/2000/svg">
<path d="M40.8571 2.875H3.13304C1.40446 2.875 0 4.17773 0 5.77695V40.223C0 41.8223 1.40446 43.125 3.13304 43.125H40.8571C42.5857 43.125 44 41.8223 44 40.223V5.77695C44 4.17773 42.5857 2.875 40.8571 2.875ZM13.2982 37.375H6.77679V18.1664H13.308V37.375H13.2982ZM10.0375 15.543C7.94554 15.543 6.25625 13.9887 6.25625 12.084C6.25625 10.1793 7.94554 8.625 10.0375 8.625C12.1196 8.625 13.8187 10.1793 13.8187 12.084C13.8187 13.9977 12.1295 15.543 10.0375 15.543V15.543ZM37.7437 37.375H31.2223V28.0312C31.2223 25.8031 31.1732 22.9371 27.8339 22.9371C24.4357 22.9371 23.9152 25.3629 23.9152 27.8695V37.375H17.3938V18.1664H23.65V20.7898H23.7384C24.6125 19.2805 26.7438 17.6902 29.9161 17.6902C36.5161 17.6902 37.7437 21.6703 37.7437 26.8453V37.375V37.375Z" fill="#F49D1A"/>
</svg>
